HIERARCHY
ROOT Hips
{
	OFFSET 0.00000 0.00000 0.00000
	CHANNELS 6 Xposition Yposition Zposition Zrotation Yrotation Xrotation 
	JOINT LHipJoint
	{
		OFFSET 0 0 0
		CHANNELS 3 Zrotation Yrotation Xrotation
		JOINT LeftUpLeg
		{
			OFFSET 3.13874 -1.57224 1.49786
			CHANNELS 3 Zrotation Yrotation Xrotation
			JOINT LeftLeg
			{
				OFFSET 2.10955 -5.79594 0.00000
				CHANNELS 3 Zrotation Yrotation Xrotation
				JOINT LeftFoot
				{
					OFFSET 2.41843 -6.64458 0.00000
					CHANNELS 3 Zrotation Yrotation Xrotation
					JOINT LeftToeBase
					{
						OFFSET 0.04713 -0.12948 1.66229
						CHANNELS 3 Zrotation Yrotation Xrotation
						End Site
						{
							OFFSET 0.00000 -0.00000 0.85167
						}
					}
				}
			}
		}
	}
	JOINT RHipJoint
	{
		OFFSET 0 0 0
		CHANNELS 3 Zrotation Yrotation Xrotation
		JOINT RightUpLeg
		{
			OFFSET -3.13988 -1.57224 1.49786
			CHANNELS 3 Zrotation Yrotation Xrotation
			JOINT RightLeg
			{
				OFFSET -2.15006 -5.90725 0.00000
				CHANNELS 3 Zrotation Yrotation Xrotation
				JOINT RightFoot
				{
					OFFSET -2.34496 -6.44273 0.00000
					CHANNELS 3 Zrotation Yrotation Xrotation
					JOINT RightToeBase
					{
						OFFSET -0.08699 -0.23900 1.55223
						CHANNELS 3 Zrotation Yrotation Xrotation
						End Site
						{
							OFFSET -0.00000 -0.00000 0.80281
						}
					}
				}
			}
		}
	}
	JOINT LowerBack
	{
		OFFSET 0 0 0
		CHANNELS 3 Zrotation Yrotation Xrotation
		JOINT Spine
		{
			OFFSET 0.01292 1.96517 -0.16495
			CHANNELS 3 Zrotation Yrotation Xrotation
			JOINT Spine1
			{
				OFFSET 0.02122 1.88666 0.19706
				CHANNELS 3 Zrotation Yrotation Xrotation
				JOINT Neck
				{
					OFFSET 0 0 0
					CHANNELS 3 Zrotation Yrotation Xrotation
					JOINT Neck1
					{
						OFFSET -0.01683 1.81591 0.07903
						CHANNELS 3 Zrotation Yrotation Xrotation
						JOINT Head
						{
							OFFSET 0.00815 1.74013 -0.47700
							CHANNELS 3 Zrotation Yrotation Xrotation
							End Site
							{
								OFFSET -0.00204 1.83225 -0.16933
							}
						}
					}
				}
				JOINT LeftShoulder
				{
					OFFSET 0 0 0
					CHANNELS 3 Zrotation Yrotation Xrotation
					JOINT LeftArm
					{
						OFFSET 3.38482 1.41533 0.19802
						CHANNELS 3 Zrotation Yrotation Xrotation
						JOINT LeftForeArm
						{
							OFFSET 4.32712 -0.00000 0.00000
							CHANNELS 3 Zrotation Yrotation Xrotation
							JOINT LeftHand
							{
								OFFSET 3.28587 -0.00000 -0.00000
								CHANNELS 3 Zrotation Yrotation Xrotation
								JOINT LeftFingerBase
								{
									OFFSET 0 0 0
									CHANNELS 3 Zrotation Yrotation Xrotation
									JOINT LeftHandIndex1
									{
										OFFSET 0.43316 -0.00000 -0.00000
										CHANNELS 3 Zrotation Yrotation Xrotation
										End Site
										{
											OFFSET 0.34922 -0.00000 -0.00000
										}
									}
								}
								JOINT LThumb
								{
									OFFSET 0 0 0
									CHANNELS 3 Zrotation Yrotation Xrotation
									End Site
									{
										OFFSET 0.35456 -0.00000 0.35456
									}
								}
							}
						}
					}
				}
				JOINT RightShoulder
				{
					OFFSET 0 0 0
					CHANNELS 3 Zrotation Yrotation Xrotation
					JOINT RightArm
					{
						OFFSET -3.09725 1.62858 -0.14144
						CHANNELS 3 Zrotation Yrotation Xrotation
						JOINT RightForeArm
						{
							OFFSET -4.29104 -0.00000 0.00000
							CHANNELS 3 Zrotation Yrotation Xrotation
							JOINT RightHand
							{
								OFFSET -3.22720 -0.00000 -0.00000
								CHANNELS 3 Zrotation Yrotation Xrotation
								JOINT RightFingerBase
								{
									OFFSET 0 0 0
									CHANNELS 3 Zrotation Yrotation Xrotation
									JOINT RightHandIndex1
									{
										OFFSET -0.54362 -0.00000 -0.00000
										CHANNELS 3 Zrotation Yrotation Xrotation
										End Site
										{
											OFFSET -0.43828 -0.00000 -0.00000
										}
									}
								}
								JOINT RThumb
								{
									OFFSET 0 0 0
									CHANNELS 3 Zrotation Yrotation Xrotation
									End Site
									{
										OFFSET -0.44497 -0.00000 0.44497
									}
								}
							}
						}
					}
				}
			}
		}
	}
}
MOTION
Frames: 15
Frame Time: 0.0555556
0.00 0.00 0.00 0 0 0 0 0 0 -21 0 0 0 0 0 0 0 0 0 0 0 0 0 0 21 0 0 0 0 0 0 0 0 0 0 0 0 0 0 0 0 0 0 0 0 0 0 -16 0 0 21 0 0 11 0 0 0 -8 0 0 0 0 0 0 0 0 0 0 0 0 0 0 0 0 0 0 0 0 8 0 0 0 0 0 0 0 0 0 0 0 0 0 0 0 0 0
0.00 0.00 0.00 -164.7440 79.6138 -153.7520 0.0000 0.0000 0.0000 -29.3915 -26.4293 5.2941 0.1116 2.1542 5.9319 0.3543 -21.8584 -17.9597 0.7909 -5.6770 -15.8501 0.0000 0.0000 0.0000 33.9081 18.7067 8.5677 -0.0070 0.5389 -1.4809 -1.8664 -15.4276 -35.1987 -0.2013 2.8890 -7.9700 8.5053 4.4952 9.2065 -4.0482 7.6882 -11.9591 -11.3026 2.2494 -17.2698 5.6881 -0.2719 -18.0818 2.0498 -1.1190 41.0904 0.0172 1.6218 18.5793 -0.0000 0.0000 0.0000 -68.4430 19.4770 40.9871 19.9207 -30.5467 -5.4910 -0.0000 -0.0000 1.3637 24.2468 25.6721 11.0410 -7.1250 0.0000 -0.0000 -6.1874 57.6698 -1.9241 -0.0000 0.0000 0.0000 87.9632 -26.5753 25.7338 -16.1724 25.7539 -3.7206 0.0000 -0.0000 -9.8178 -24.0304 -18.2285 7.9398 7.1250 -0.0000 -0.0000 4.0293 -49.7658 -0.4741
0.00 0.00 0.00 -166.4730 80.3064 -155.3690 0.0000 0.0000 0.0000 -30.3806 -23.7088 4.6053 0.1592 2.5705 7.0852 -0.2632 -21.9108 -13.3684 0.2602 -3.2815 -9.0634 0.0000 0.0000 0.0000 28.4634 4.9977 -8.3288 -0.8437 -5.8590 16.3758 -1.0545 -8.2524 -24.0384 -3.6820 11.7248 -34.7653 6.8746 3.5453 10.3069 -3.0867 6.1458 -11.0980 -8.9964 1.7935 -17.5017 1.9992 -2.7699 -17.9804 4.0731 -4.5994 41.4295 0.9333 -0.0675 18.8840 0.0000 0.0000 0.0000 -70.4389 19.8573 37.9679 18.5749 -28.8870 -4.8238 -0.0000 -0.0000 2.4282 26.3574 28.3899 13.2563 -7.1250 0.0000 -0.0000 -5.0402 61.0071 -1.9684 0.0000 0.0000 0.0000 85.0081 -26.0387 27.5329 -16.7625 26.5436 -3.9806 0.0000 -0.0000 -10.5517 -25.1063 -18.4785 8.4474 7.1250 -0.0000 -0.0000 3.0259 -50.2119 -0.3890
0.00 0.00 0.00 -187.3380 87.0257 -174.0940 0.0000 0.0000 0.0000 -35.7670 -19.3613 10.9980 0.0155 0.8027 2.2061 -0.1861 -24.6472 -16.1229 0.2876 -3.4491 -9.5318 0.0000 0.0000 0.0000 22.5096 15.8448 -32.7260 -1.3861 -7.4493 21.0536 -0.2256 -14.3804 -22.7340 -2.1520 9.1757 -26.3465 2.6226 2.8658 13.7493 -3.6225 4.2198 -9.8998 -7.0222 1.2733 -18.8412 -0.1982 -5.2288 -17.4821 7.0137 -9.0406 41.5746 1.8256 -1.8031 19.4056 0.0000 -0.0000 0.0000 -69.7439 17.9800 31.9375 16.0209 -25.5490 -3.6550 -0.0000 -0.0000 5.2671 26.3724 27.7011 12.9788 -7.1250 0.0000 -0.0000 -4.6954 60.2902 -1.7534 0.0000 -0.0000 0.0000 83.8013 -26.0398 27.6659 -16.2491 25.8572 -3.7539 0.0000 -0.0000 -9.3777 -23.1440 -19.2833 8.0347 7.1250 -0.0000 -0.0000 5.1684 -50.7399 -0.7327
0.00 0.00 0.00 -201.5310 87.3380 -187.1620 0.0000 0.0000 0.0000 -37.6624 -19.5503 14.7734 0.0002 0.0851 0.2338 -0.4796 -26.4737 -15.5821 0.2521 -3.2307 -8.9216 0.0000 0.0000 0.0000 13.6028 30.3665 -30.4544 -0.0711 -1.7203 4.7332 -2.2570 -16.5044 -38.1149 -0.0100 0.6465 -1.7766 2.4398 2.6044 13.6345 -3.9090 3.7786 -9.9335 -7.1314 1.0738 -18.8627 -0.4512 -5.5577 -17.4557 7.5401 -9.7114 41.5039 1.9819 -2.0440 19.4832 -0.0000 0.0000 0.0000 -68.7456 16.7089 35.5614 16.3880 -26.0440 -3.8147 -0.0000 -0.0000 4.1278 25.6845 27.8030 12.6435 -7.1250 0.0000 -0.0000 -5.5357 60.2278 -2.0600 -0.0000 0.0000 0.0000 84.7799 -27.2573 25.3746 -15.9083 25.3961 -3.6065 0.0000 -0.0000 -9.5820 -23.4911 -18.6520 7.9135 7.1250 -0.0000 -0.0000 4.6620 -50.1287 -0.5905
0.00 0.00 0.00 -228.0390 88.8872 -214.8720 0.0000 0.0000 0.0000 -30.2029 -1.9963 9.4969 1.8549 8.5570 24.4191 0.2322 6.8215 -14.0578 1.1276 -6.7448 -18.9615 0.0000 0.0000 0.0000 24.4887 20.6229 -28.9332 -1.3628 -7.3890 20.8730 0.0502 -11.1548 -15.1248 -0.9920 6.3388 -17.7706 6.7400 1.8930 13.4927 -4.3202 3.7260 -10.3556 -10.1189 0.4004 -19.1227 -2.2453 -6.2929 -15.3383 7.3835 -10.1071 41.6196 2.1810 -2.5762 19.0968 -0.0000 -0.0000 0.0000 -68.3767 16.5895 42.9292 22.2748 -33.2862 -6.7360 -0.0000 0.0000 -1.2009 24.3066 28.1185 12.0169 -7.1250 0.0000 -0.0000 -7.2666 60.2183 -2.7061 -0.0000 -0.0000 0.0000 86.4863 -28.9590 24.2118 -15.5372 24.8891 -3.4489 0.0000 -0.0000 -9.7251 -22.4414 -20.3782 8.1841 7.1250 -0.0000 -0.0000 6.1794 -51.7717 -1.0337
0.00 0.00 0.00 -95.2538 88.3245 -83.5596 0.0000 0.0000 0.0000 -23.1853 2.0400 -5.0871 6.4033 14.8081 46.5795 -1.5564 21.8073 -12.7641 5.5195 -13.9459 -43.0213 0.0000 0.0000 0.0000 31.0825 17.2290 -17.7693 -0.6685 -5.2286 14.5618 -0.1766 -9.6268 -16.3640 -1.3258 7.2920 -20.5833 9.3842 1.8735 13.5415 -3.8423 4.3160 -9.9579 -11.1781 0.4180 -18.4136 -2.5901 -6.3002 -14.8635 7.6007 -10.0708 41.6161 2.3665 -2.6005 19.0084 -0.0000 -0.0000 0.0000 -68.6640 15.9107 42.8671 20.8066 -31.6019 -5.9483 -0.0000 0.0000 -0.6808 25.7726 25.5481 11.7626 -7.1250 0.0000 -0.0000 -4.4571 57.8840 -1.4073 -0.0000 -0.0000 0.0000 85.6386 -26.5486 26.6995 -16.1859 25.7720 -3.7264 0.0000 -0.0000 -9.6480 -23.1250 -18.5710 7.7451 7.1250 -0.0000 -0.0000 5.0013 -49.9826 -0.6157
0.00 0.00 0.00 -76.6349 85.6342 -66.0406 0.0000 0.0000 0.0000 -19.9030 -6.1753 -34.3360 9.3944 17.0549 57.4443 0.9365 8.2504 -23.0443 10.8587 -17.8653 -62.3220 0.0000 0.0000 0.0000 37.8461 15.0463 1.2931 -0.0252 -1.0248 2.8170 -0.6234 -10.1096 -21.8248 -0.4946 4.5091 -12.5136 11.0306 2.7738 13.9911 -2.8580 6.1424 -10.2571 -11.2923 1.1704 -17.9815 -2.7992 -6.4858 -14.7796 6.4877 -9.8289 41.3950 1.8981 -2.7121 18.7120 -0.0000 0.0000 0.0000 -69.5446 17.0806 40.4893 20.4562 -31.1881 -5.7658 -0.0000 0.0000 -0.0542 25.7638 25.3344 11.6688 -7.1250 0.0000 -0.0000 -4.3834 57.6565 -1.3600 -0.0000 0.0000 0.0000 81.8498 -20.9701 31.7703 -17.6318 27.6832 -4.3768 0.0000 -0.0000 -10.0514 -24.6386 -18.8156 8.4145 7.1250 -0.0000 -0.0000 3.5679 -50.4950 -0.4837
0.00 0.00 0.00 -76.7651 83.7758 -66.4807 0.0000 0.0000 0.0000 -14.7044 -15.0835 -38.4198 4.1650 12.3768 37.0784 0.8462 11.5569 -25.1228 12.2922 -18.5114 -66.9120 0.0000 0.0000 0.0000 41.9670 14.8691 11.1540 -0.0327 1.1679 -3.2108 -0.4335 -13.3029 -23.3843 -0.3905 4.0125 -11.1118 12.5748 3.0593 14.2802 -2.1666 7.0898 -10.5412 -11.6364 1.4280 -18.1737 -2.7141 -6.2904 -15.1552 5.6306 -9.2601 40.6625 1.5401 -2.6476 18.2247 -0.0000 -0.0000 0.0000 -69.3248 18.6993 38.6866 20.3081 -31.0117 -5.6892 -0.0000 -0.0000 0.3336 26.0860 26.4793 12.3143 -7.1250 0.0000 -0.0000 -4.4850 58.9377 -1.5297 -0.0000 -0.0000 0.0000 80.3206 -18.7080 33.6567 -18.3465 28.5985 -4.7139 0.0000 -0.0000 -10.5166 -26.0125 -17.0265 8.1322 7.1250 -0.0000 -0.0000 1.8367 -48.7879 -0.1716
0.00 0.00 0.00 -72.5972 80.6417 -61.4649 0.0000 0.0000 0.0000 -0.6472 -29.6770 -35.7317 0.4755 4.4224 12.2682 1.8547 15.7836 -35.4334 10.4086 -17.6333 -60.8456 0.0000 0.0000 0.0000 47.5371 16.7211 19.3238 -0.1301 2.3252 -6.4052 -0.1195 -17.4803 -25.7928 -0.5650 4.8143 -13.3796 15.2678 3.3563 14.1016 -1.6627 8.3649 -11.4530 -12.8977 1.6182 -18.5850 -2.8440 -5.6553 -15.1518 5.3252 -8.1789 39.1929 1.5708 -2.3845 17.2749 -0.0000 -0.0000 0.0000 -67.7011 21.2911 37.6595 19.9571 -30.5906 -5.5095 -0.0000 -0.0000 0.9056 25.8845 25.0864 11.6255 -7.1250 0.0000 -0.0000 -4.1559 57.4217 -1.2657 -0.0000 -0.0000 0.0000 79.8762 -16.7534 34.9988 -18.6163 28.9391 -4.8438 0.0000 -0.0000 -10.6132 -25.4117 -17.1930 7.9938 7.1250 -0.0000 -0.0000 2.4544 -48.8737 -0.2346
0.00 0.00 0.00 -49.9914 79.6321 -39.4690 0.0000 0.0000 0.0000 -8.3888 -29.0786 -29.4613 0.6688 5.2300 14.5658 1.9687 6.0186 -29.2167 6.0492 -14.4759 -45.1790 0.0000 0.0000 0.0000 40.7276 4.7388 20.3804 -0.1461 -2.4631 6.7873 0.1458 -9.9196 -11.3598 -1.2223 7.0125 -19.7523 12.8085 4.2399 11.3788 -2.3954 8.5784 -12.1651 -12.1599 2.0895 -17.8765 -0.9718 -4.4047 -17.1427 5.5818 -7.2292 37.4679 1.4299 -1.7819 16.7031 0.0000 0.0000 0.0000 -66.3747 24.8589 28.2294 14.8724 -23.9681 -3.1739 -0.0000 -0.0000 4.9570 24.0246 26.6273 11.2975 -7.1250 0.0000 -0.0000 -6.8545 58.6115 -2.2881 0.0000 0.0000 0.0000 81.1554 -20.4986 34.8657 -20.8303 31.6297 -5.9607 0.0000 -0.0000 -11.6672 -25.5162 -17.9316 8.3603 7.1250 -0.0000 -0.0000 2.5022 -49.6898 -0.2895
0.00 0.00 0.00 -41.9938 84.0459 -33.3365 0.0000 0.0000 0.0000 -20.1805 -26.2269 -22.1322 1.0345 6.4691 18.1517 1.4944 0.2705 -23.2258 4.1085 -12.3034 -36.8140 0.0000 0.0000 0.0000 30.5033 -3.9809 10.6093 -2.0059 -8.8784 25.4157 0.6962 -18.6896 5.6455 -1.2002 6.9508 -19.5698 9.3736 3.5055 11.2793 -3.3268 6.5924 -11.3241 -10.9359 1.5426 -18.1282 1.4967 -4.0170 -15.3700 3.2431 -6.5461 33.8530 0.0829 -1.7510 14.2409 -0.0000 -0.0000 0.0000 -66.6465 22.8102 26.5434 12.9351 -21.1920 -2.4298 -0.0000 -0.0000 8.5557 22.4594 29.5567 11.5255 -7.1250 0.0000 -0.0000 -10.1804 61.2283 -4.0473 -0.0000 -0.0000 0.0000 83.0252 -24.2044 30.4452 -19.8796 30.4970 -5.4701 0.0000 -0.0000 -11.7429 -24.7775 -18.1929 8.2008 7.1250 -0.0000 -0.0000 3.2865 -49.8500 -0.3933
0.00 0.00 0.00 6.8661 85.6701 13.6261 0.0000 0.0000 0.0000 -31.2545 -22.9900 -7.9885 0.4823 4.4536 12.3564 1.6487 -5.4122 -23.1325 3.4989 -11.4619 -33.8538 0.0000 0.0000 0.0000 22.8794 -5.9510 -5.1605 -6.7807 -15.1444 48.0400 2.1896 -26.1880 -1.9750 -0.1691 2.6491 -7.3032 4.8308 3.3701 12.8028 -4.2310 5.3315 -10.5297 -9.2577 1.4349 -18.6389 2.1848 -3.7611 -15.1270 3.0243 -6.2942 32.8464 -0.0847 -1.6516 13.6996 -0.0000 -0.0000 0.0000 -65.7038 18.3287 34.2740 14.4563 -23.3833 -3.0068 -0.0000 -0.0000 5.9996 23.0247 26.2881 10.6594 -7.1250 0.0000 -0.0000 -7.7965 58.0336 -2.4965 -0.0000 -0.0000 0.0000 83.8402 -26.6725 28.7702 -17.9379 28.0776 -4.5200 0.0000 -0.0000 -11.2217 -22.9136 -18.2189 7.5283 7.1250 -0.0000 -0.0000 5.1195 -49.5753 -0.5789
0.00 0.00 0.00 8.8364 86.3682 16.4090 0.0000 0.0000 0.0000 -34.1700 -20.5175 0.1277 0.2348 3.1189 8.6098 1.8596 -9.0880 -24.4554 2.6396 -10.0875 -29.2606 0.0000 0.0000 0.0000 24.4186 -0.6351 -23.0291 -7.8264 -15.9901 51.9351 0.4778 -17.2266 -19.3889 -0.5288 4.6600 -12.9413 4.5487 2.9807 12.8714 -4.1273 4.7428 -10.4572 -8.8241 1.2104 -18.7328 2.3099 -3.5363 -15.3875 3.6387 -6.2274 32.3459 0.1379 -1.5495 13.5673 0.0000 0.0000 0.0000 -65.7395 12.1137 37.4141 17.6031 -27.6459 -4.3635 -0.0000 -0.0000 5.4981 26.3313 30.4945 14.0980 -7.1250 0.0000 -0.0000 -6.2057 63.1846 -2.7443 0.0000 0.0000 0.0000 84.4243 -28.6132 26.6155 -16.5803 26.3012 -3.8996 0.0000 -0.0000 -9.7244 -22.8007 -18.4610 7.5824 7.1250 -0.0000 -0.0000 5.2910 -49.8134 -0.6294
0.00 0.00 0.00 92.8016 86.3149 101.0210 0.0000 0.0000 0.0000 -41.9609 -18.4983 16.3442 0.0025 0.3219 0.8845 2.1376 -13.1994 -26.5079 1.5343 -7.8200 -22.1686 0.0000 0.0000 0.0000 16.4059 16.9367 -27.4838 -0.3468 -3.7838 10.4692 -1.7965 -16.0801 -35.3693 -0.3644 3.8779 -10.7333 0.6673 2.0482 12.9890 -4.7151 2.5241 -10.0033 -6.6900 0.6872 -18.7330 3.4836 -3.0552 -16.6139 4.4735 -6.2386 30.1697 0.2177 -1.4215 12.9204 -0.0000 0.0000 0.0000 -68.0390 4.4120 43.2415 24.1843 -35.3586 -7.8130 -0.0000 -0.0000 0.6355 21.5048 47.4691 16.1906 -7.1250 0.0000 -0.0000 -39.4604 76.8555 -30.3172 -0.0000 0.0000 0.0000 86.0335 -31.2865 20.6337 -14.9775 24.1147 -3.2167 0.0000 -0.0000 -10.5222 -23.2105 -18.6223 7.7972 7.1250 -0.0000 -0.0000 4.9304 -50.0509 -0.6152
